<?xml version="1.0" encoding="UTF-8"?>
<svg width="202px" height="27px" viewBox="0 0 202 27" version="1.1" xmlns="http://www.w3.org/2000/svg" xmlns:xlink="http://www.w3.org/1999/xlink">
    <!-- Generator: Sketch 58 (84663) - https://sketch.com -->
    <title>Group</title>
    <desc>Created with Sketch.</desc>
    <g id="Page-1" stroke="none" stroke-width="1" fill="none" fill-rule="evenodd">
        <g id="Group" transform="translate(-1.000000, 0.000000)" fill="#002456" fill-rule="nonzero">
            <path d="M5.085,19.635 C3.75,18.825 2.732,17.647 2.033,16.1 C1.334,14.553 0.984,12.685 0.984,10.494 C0.984,8.321 1.343,6.484 2.061,4.983 C2.779,3.483 3.801,2.35 5.127,1.586 C6.453,0.822 8.036,0.44 9.877,0.44 C11.148,0.44 12.316,0.652 13.385,1.075 C14.452,1.499 15.346,2.014 16.064,2.622 L15.152,5.19 C14.323,4.565 13.499,4.086 12.68,3.754 C11.861,3.422 10.954,3.257 9.96,3.257 C8.082,3.257 6.631,3.8 5.609,4.886 C4.587,5.973 4.076,7.603 4.076,9.775 L4.076,11.212 C4.076,12.703 4.315,13.96 4.794,14.983 C5.273,16.004 5.954,16.769 6.838,17.275 C7.722,17.782 8.771,18.035 9.986,18.035 C10.999,18.035 11.915,17.879 12.735,17.565 C13.554,17.252 14.369,16.801 15.179,16.211 L16.118,18.697 C15.381,19.304 14.474,19.815 13.397,20.229 C12.32,20.644 11.155,20.851 9.903,20.851 C8.027,20.851 6.42,20.445 5.085,19.635 Z" id="Path"></path>
            <path d="M20.718,19.856 C19.678,19.193 18.9,18.291 18.384,17.149 C17.868,16.007 17.612,14.728 17.612,13.31 C17.612,11.892 17.869,10.613 18.384,9.47 C18.9,8.328 19.678,7.426 20.718,6.763 C21.758,6.101 23.033,5.769 24.544,5.769 C26.053,5.769 27.328,6.101 28.369,6.763 C29.409,7.426 30.187,8.328 30.703,9.47 C31.218,10.613 31.476,11.892 31.476,13.31 C31.476,14.728 31.217,16.007 30.703,17.149 C30.187,18.291 29.409,19.193 28.369,19.856 C27.328,20.518 26.053,20.8500045 24.544,20.8500045 C23.033,20.851 21.758,20.519 20.718,19.856 Z M27.43,17.163 C28.102,16.362 28.439,15.216 28.439,13.725 L28.439,12.896 C28.439,11.405 28.102,10.258 27.43,9.458 C26.758,8.658 25.796,8.257 24.544,8.257 C23.291,8.257 22.329,8.657 21.657,9.458 C20.984,10.259 20.649,11.405 20.649,12.896 L20.649,13.725 C20.649,15.216 20.984,16.363 21.657,17.163 C22.329,17.964 23.291,18.364 24.544,18.364 C25.796,18.364 26.758,17.964 27.43,17.163 Z" id="Shape"></path>
            <path d="M37.912,7.386 C38.28,6.861 38.796,6.46 39.459,6.185 C40.121,5.909 40.996,5.77 42.082,5.77 L42.082,8.587 C40.886,8.587 39.97,8.656 39.334,8.794 C38.699,8.933 38.206,9.177 37.856,9.526 C37.506,9.875 37.211,10.41 36.972,11.128 L36.972,20.574 L34.017,20.574 L34.017,6.046 L36.972,6.046 L36.972,9.416 C37.23,8.587 37.543,7.91 37.912,7.386 Z" id="Path"></path>
            <path d="M48.131,7.386 C48.499,6.861 49.015,6.46 49.678,6.185 C50.34,5.909 51.215,5.77 52.301,5.77 L52.301,8.587 C51.105,8.587 50.189,8.656 49.553,8.794 C48.918,8.933 48.425,9.177 48.075,9.526 C47.725,9.875 47.43,10.41 47.191,11.128 L47.191,20.574 L44.236,20.574 L44.236,6.046 L47.191,6.046 L47.191,9.416 C47.449,8.587 47.762,7.91 48.131,7.386 Z" id="Path"></path>
            <path d="M66.222,14.194 L56.638,14.194 C56.694,15.667 57.02,16.74 57.618,17.412 C58.216,18.084 59.141,18.42 60.394,18.42 C61.332,18.42 62.226,18.296 63.073,18.047 C63.92,17.799 64.657,17.472 65.283,17.067 L65.835,19.442 C65.283,19.866 64.532,20.207 63.584,20.464 C62.636,20.721 61.609,20.851 60.505,20.851 C58.203,20.851 56.477,20.211 55.326,18.931 C54.175,17.652 53.599,15.778 53.599,13.311 C53.599,11.856 53.843,10.562 54.331,9.43 C54.818,8.297 55.555,7.405 56.54,6.75 C57.525,6.097 58.736,5.77 60.172,5.77 C62.253,5.77 63.781,6.447 64.757,7.8 C65.734,9.154 66.221,10.945 66.221,13.172 L66.221,14.194 L66.222,14.194 Z M57.674,9.153 C57.075,9.752 56.739,10.695 56.665,11.984 L63.487,11.984 C63.414,10.713 63.105,9.774 62.562,9.167 C62.019,8.56 61.231,8.256 60.201,8.256 C59.114,8.256 58.271,8.555 57.674,9.153 Z" id="Shape"></path>
            <path d="M71.014,19.856 C69.973,19.193 69.196,18.291 68.68,17.149 C68.164,16.007 67.907,14.728 67.907,13.31 C67.907,11.892 68.165,10.613 68.68,9.47 C69.196,8.328 69.973,7.426 71.014,6.763 C72.054,6.101 73.329,5.769 74.839,5.769 C76.349,5.769 77.624,6.101 78.664,6.763 C79.704,7.426 80.482,8.328 80.998,9.47 C81.514,10.613 81.771,11.892 81.771,13.31 C81.771,14.728 81.513,16.007 80.998,17.149 C80.483,18.291 79.704,19.193 78.664,19.856 C77.624,20.518 76.349,20.85 74.839,20.85 C73.329,20.85 72.054,20.519 71.014,19.856 Z M77.726,17.163 C78.398,16.362 78.734,15.216 78.734,13.725 L78.734,12.896 C78.734,11.405 78.398,10.258 77.726,9.458 C77.053,8.657 76.091,8.257 74.839,8.257 C73.587,8.257 72.625,8.657 71.953,9.458 C71.28,10.259 70.944,11.405 70.944,12.896 L70.944,13.725 C70.944,15.216 71.28,16.363 71.953,17.163 C72.625,17.964 73.587,18.364 74.839,18.364 C76.091,18.364 77.053,17.964 77.726,17.163 Z" id="Shape"></path>
            <path d="M85.486,20.464 C84.519,20.206 83.768,19.875 83.235,19.47 L83.842,17.122 C84.615,17.509 85.37,17.799 86.107,17.992 C86.844,18.185 87.608,18.282 88.4,18.282 C89.265,18.282 89.932,18.153 90.402,17.895 C90.872,17.637 91.106,17.186 91.106,16.541 C91.106,16.136 91.009,15.813 90.816,15.574 C90.624,15.335 90.342,15.145 89.974,15.008 C89.605,14.87 89.08,14.718 88.4,14.552 L88.041,14.469 C87.01,14.231 86.167,13.954 85.514,13.641 C84.861,13.328 84.345,12.895 83.967,12.343 C83.59,11.79 83.401,11.072 83.401,10.189 C83.401,9.434 83.59,8.72 83.967,8.048 C84.345,7.376 84.939,6.828 85.749,6.404 C86.559,5.98 87.581,5.768 88.814,5.768 C89.808,5.768 90.715,5.893 91.535,6.141 C92.354,6.39 93.068,6.707 93.676,7.094 L93.123,9.579 C92.478,9.175 91.82,8.866 91.148,8.654 C90.475,8.442 89.698,8.337 88.814,8.337 C87.046,8.337 86.163,8.889 86.163,9.994 C86.163,10.381 86.246,10.689 86.411,10.919 C86.577,11.149 86.862,11.343 87.267,11.499 C87.672,11.655 88.289,11.826 89.118,12.01 L89.477,12.093 C90.397,12.296 91.162,12.535 91.769,12.811 C92.376,13.087 92.888,13.511 93.302,14.082 C93.716,14.653 93.923,15.427 93.923,16.402 C93.923,17.268 93.725,18.037 93.329,18.709 C92.933,19.381 92.321,19.906 91.492,20.283 C90.664,20.66 89.641,20.8490453 88.427,20.8490453 C87.434,20.851 86.453,20.722 85.486,20.464 Z" id="Path"></path>
            <path d="M113.202,1.447 C114.215,1.935 114.993,2.639 115.536,3.56 C116.079,4.481 116.351,5.567 116.351,6.819 C116.351,8.071 116.079,9.158 115.536,10.078 C114.993,10.999 114.215,11.704 113.202,12.191 C112.189,12.679 110.993,12.923 109.612,12.923 L105.385,12.923 L105.385,20.573 L102.403,20.573 L102.403,0.715 L109.612,0.715 C110.993,0.715 112.189,0.96 113.202,1.447 Z M113.258,6.653 C113.258,6.046 113.161,5.503 112.968,5.024 C112.775,4.545 112.361,4.14 111.725,3.808 C111.09,3.477 110.156,3.311 108.922,3.311 L105.386,3.311 L105.386,10.327 L108.922,10.327 C110.395,10.327 111.485,10.074 112.194,9.567 C112.903,9.061 113.257,8.2 113.257,6.985 L113.257,6.653 L113.258,6.653 Z" id="Shape"></path>
            <path d="M122.676,7.386 C123.044,6.861 123.56,6.46 124.223,6.185 C124.885,5.909 125.76,5.77 126.846,5.77 L126.846,8.587 C125.65,8.587 124.734,8.656 124.098,8.794 C123.463,8.933 122.97,9.177 122.62,9.526 C122.27,9.875 121.975,10.41 121.736,11.128 L121.736,20.574 L118.781,20.574 L118.781,6.046 L121.736,6.046 L121.736,9.416 C121.994,8.587 122.307,7.91 122.676,7.386 Z" id="Path"></path>
            <path d="M140.767,14.194 L131.183,14.194 C131.239,15.667 131.565,16.74 132.163,17.412 C132.761,18.084 133.686,18.42 134.939,18.42 C135.877,18.42 136.771,18.296 137.618,18.047 C138.465,17.799 139.202,17.472 139.828,17.067 L140.38,19.442 C139.828,19.866 139.077,20.207 138.129,20.464 C137.181,20.721 136.154,20.851 135.05,20.851 C132.748,20.851 131.022,20.211 129.871,18.931 C128.72,17.652 128.144,15.778 128.144,13.311 C128.144,11.856 128.388,10.562 128.876,9.43 C129.363,8.297 130.1,7.405 131.085,6.75 C132.07,6.097 133.281,5.77 134.717,5.77 C136.798,5.77 138.326,6.447 139.302,7.8 C140.279,9.154 140.766,10.945 140.766,13.172 L140.766,14.194 L140.767,14.194 Z M132.219,9.153 C131.62,9.752 131.284,10.695 131.21,11.984 L138.032,11.984 C137.959,10.713 137.65,9.774 137.107,9.167 C136.564,8.56 135.776,8.256 134.746,8.256 C133.659,8.256 132.816,8.555 132.219,9.153 Z" id="Shape"></path>
            <path d="M154.079,6.667 C155.018,7.266 155.745,8.131 156.262,9.264 C156.777,10.397 157.035,11.745 157.035,13.311 C157.035,14.875 156.776,16.224 156.262,17.357 C155.745,18.49 155.019,19.355 154.079,19.954 C153.141,20.553 152.063,20.851 150.848,20.851 C149.669,20.851 148.684,20.552 147.893,19.954 C147.101,19.355 146.557,18.568 146.263,17.592 L146.263,26.431 L143.308,26.431 L143.308,6.046 L146.263,6.046 L146.263,9.029 C146.557,8.052 147.101,7.265 147.893,6.667 C148.684,6.069 149.669,5.77 150.848,5.77 C152.063,5.77 153.141,6.069 154.079,6.667 Z M153.996,12.868 C153.996,11.248 153.669,10.074 153.016,9.347 C152.363,8.62 151.401,8.256 150.13,8.256 C149.191,8.256 148.394,8.421 147.74,8.753 C147.087,9.084 146.594,9.647 146.262,10.438 L146.262,16.183 C146.594,16.975 147.086,17.537 147.74,17.868 C148.393,18.2 149.19,18.365 150.13,18.365 C151.401,18.365 152.362,18.002 153.016,17.274 C153.669,16.547 153.996,15.373 153.996,13.753 L153.996,12.868 Z" id="Shape"></path>
            <path d="M169.16,7.289 C170.081,8.302 170.541,9.774 170.541,11.708 L170.541,20.574 L167.586,20.574 L167.586,18.006 C167.181,18.944 166.619,19.653 165.901,20.132 C165.182,20.611 164.225,20.851 163.028,20.851 C162.144,20.851 161.376,20.671 160.722,20.312 C160.068,19.954 159.562,19.46 159.202,18.834 C158.842,18.208 158.663,17.49 158.663,16.68 C158.663,15.336 159.124,14.273 160.045,13.49 C160.965,12.708 162.273,12.28 163.967,12.206 L167.585,12.041 L167.585,11.902 C167.585,10.981 167.475,10.268 167.254,9.761 C167.032,9.255 166.696,8.901 166.245,8.698 C165.794,8.496 165.2,8.394 164.464,8.394 C162.77,8.394 161.214,8.808 159.796,9.637 L159.243,7.179 C159.925,6.755 160.735,6.414 161.674,6.157 C162.613,5.899 163.58,5.77 164.574,5.77 C166.711,5.77 168.239,6.276 169.16,7.289 Z M166.066,18.089 C166.766,17.813 167.272,17.37 167.586,16.763 L167.586,14.166 L164.465,14.359 C163.729,14.415 163.139,14.511 162.697,14.649 C162.255,14.788 161.932,15 161.73,15.285 C161.527,15.57 161.426,15.952 161.426,16.431 C161.426,17.13 161.614,17.651 161.992,17.992 C162.369,18.333 162.944,18.503 163.718,18.503 C164.584,18.503 165.367,18.364 166.066,18.089 Z" id="Shape"></path>
            <path d="M186.533,6.046 L186.533,19.331 C186.533,21.596 185.984,23.392 184.889,24.717 C183.793,26.043 182.031,26.706 179.6,26.706 C178.457,26.706 177.385,26.572 176.382,26.306 C175.378,26.038 174.572,25.702 173.965,25.297 L174.518,22.839 C175.18,23.244 175.967,23.575 176.879,23.833 C177.79,24.091 178.733,24.22 179.71,24.22 C181.035,24.22 182.012,23.857 182.638,23.129 C183.264,22.401 183.576,21.237 183.576,19.635 L183.576,17.177 C183.282,18.135 182.738,18.913 181.947,19.511 C181.155,20.11 180.17,20.408 178.991,20.408 C177.776,20.408 176.699,20.118 175.76,19.538 C174.822,18.958 174.094,18.116 173.578,17.011 C173.062,15.907 172.805,14.6 172.805,13.089 C172.805,11.598 173.068,10.3 173.592,9.194 C174.116,8.09 174.844,7.243 175.774,6.653 C176.704,6.064 177.777,5.769 178.992,5.769 C180.171,5.769 181.156,6.069 181.948,6.666 C182.739,7.265 183.283,8.043 183.577,9 L183.577,6.045 L186.533,6.045 L186.533,6.046 Z M182.1,17.426 C182.753,17.094 183.246,16.542 183.578,15.769 L183.578,10.41 C183.247,9.637 182.754,9.084 182.1,8.753 C181.447,8.421 180.65,8.256 179.711,8.256 C178.44,8.256 177.478,8.601 176.824,9.291 C176.17,9.981 175.844,11.101 175.844,12.647 L175.844,13.531 C175.844,15.078 176.171,16.196 176.824,16.886 C177.477,17.576 178.44,17.922009 179.711,17.922009 C180.649,17.923 181.446,17.757 182.1,17.426 Z" id="Shape"></path>
            <path d="M192.181,19.856 C191.14,19.193 190.363,18.291 189.847,17.149 C189.331,16.007 189.074,14.728 189.074,13.31 C189.074,11.892 189.332,10.613 189.847,9.47 C190.363,8.328 191.14,7.426 192.181,6.763 C193.221,6.101 194.496,5.769 196.006,5.769 C197.516,5.769 198.791,6.101 199.831,6.763 C200.871,7.426 201.649,8.328 202.165,9.47 C202.681,10.613 202.938,11.892 202.938,13.31 C202.938,14.728 202.68,16.007 202.165,17.149 C201.65,18.291 200.871,19.193 199.831,19.856 C198.791,20.518 197.516,20.85 196.006,20.85 C194.496,20.85 193.221,20.519 192.181,19.856 Z M198.893,17.163 C199.565,16.362 199.901,15.216 199.901,13.725 L199.901,12.896 C199.901,11.405 199.565,10.258 198.893,9.458 C198.22,8.657 197.258,8.257 196.006,8.257 C194.754,8.257 193.792,8.657 193.12,9.458 C192.447,10.259 192.111,11.405 192.111,12.896 L192.111,13.725 C192.111,15.216 192.447,16.363 193.12,17.163 C193.792,17.964 194.754,18.364 196.006,18.364 C197.258,18.364 198.22,17.964 198.893,17.163 Z" id="Shape"></path>
        </g>
    </g>
</svg>